<svg xmlns="http://www.w3.org/2000/svg" xmlns:xlink="http://www.w3.org/1999/xlink" viewBox="0 0 614 614"><defs><style>.cls-1{fill-rule:evenodd;fill:url(#linear-gradient);}.cls-2{fill:#fff;}</style><linearGradient id="linear-gradient" x1="-672.92" y1="974.88" x2="-672.71" y2="975" gradientTransform="matrix(2560, 0, 0, -2560, 1722746.04, 2496137.4)" gradientUnits="userSpaceOnUse"><stop offset="0" stop-color="#33ca7f"/><stop offset="1" stop-color="#68e565"/></linearGradient></defs><g id="Layer_2" data-name="Layer 2"><g id="Layer_5" data-name="Layer 5"><g id="Layer_3" data-name="Layer 3"><path class="cls-1" d="M0,0H614V614H0Z"/></g><g id="Layer_4" data-name="Layer 4"><g id="Rotate"><g id="Rocket"><g id="Flame"><path class="cls-2" d="M253.46,430.74s45.38,51.29-53.12,61.71l14.81-25.66S251.67,468.48,253.46,430.74Z"/></g><g id="Body"><path class="cls-2" d="M249.84,406.71c37.45,28.39,46.1,6.32,67.53-13-4.86,9.16-9.63,115.37,32.29,74.07,12.61-14.53,41.49-41.86,48-57.13,13.72-32.2-10.47-71.86-10.47-71.86,71.09-113.14,25.38-214,25.38-214l-48,83.14c45.33,25.35,4.57,95.85-40,69.28Z"/></g><g id="Big"><path class="cls-2" d="M351.7,230.27l-15,26C353.42,266.23,368.7,239.75,351.7,230.27Z"/></g><g id="Flame-2" data-name="Flame"><path class="cls-2" d="M253.46,430.74s45.38,51.29-53.12,61.71l14.81-25.66S251.67,468.48,253.46,430.74Z"/><path class="cls-2" d="M254.28,433.39c-1.72,18.19-11.83,26.58-20.23,30.44a45.46,45.46,0,0,1-18.33,4l-13.53,23.44c33.79-3.83,53.7-12.93,59.19-27.05,4.9-12.59-3.46-25.88-7.1-30.8m-.82-2.65s45.38,51.29-53.12,61.71l14.81-25.66s36.52,1.69,38.31-36.05Z"/></g><g id="Body-2" data-name="Body"><path class="cls-2" d="M249.84,406.71c37.45,28.39,46.1,6.32,67.53-13-4.86,9.16-9.63,115.37,32.29,74.07,12.61-14.53,41.49-41.86,48-57.13,13.72-32.2-10.47-71.86-10.47-71.86,71.09-113.14,25.38-214,25.38-214l-48,83.14c45.33,25.35,4.57,95.85-40,69.28Z"/><path class="cls-2" d="M412.43,127.09l-46.49,80.52c23.08,13.52,23.05,37.94,13.22,55-5.36,9.28-13.37,16.2-22.57,19.48-10.3,3.68-21.24,2.5-31.65-3.43l-.34.59-2.37,4.1L313.76,298l-25.69,44.5-36.92,64a101.4,101.4,0,0,0,10,6.71c22.6,13,32.28,3.15,45.68-10.55,3.07-3.15,6.25-6.4,9.82-9.61l4.2-3.78-2.65,5c-3.56,6.72-7.2,71,9.95,80.87,5.29,3.05,12.27.38,20.73-7.95,3.48-4,8.25-9.05,13.3-14.39,13.3-14.05,29.86-31.55,34.51-42.45,13.35-31.35-10.17-70.56-10.41-71l-.32-.53.33-.53a259.1,259.1,0,0,0,33.82-80.79,239.27,239.27,0,0,0,5.39-67.93c-2.11-32.81-10.52-56-13.12-62.47m.14-2.25s45.71,100.84-25.38,214c0,0,24.19,39.66,10.47,71.86-6.51,15.27-35.39,42.6-48,57.13-9.57,9.43-16.7,11.17-22,8.13-17.78-10.26-14.08-75.13-10.33-82.2C298.18,411,289.25,430.51,260.7,414a104.86,104.86,0,0,1-10.86-7.32l74.73-129.45.6.35c44.14,25.49,84.19-43.79,40-69.3l-.59-.33,48-83.14Z"/></g><g id="Big-2" data-name="Big"><path class="cls-2" d="M351.7,230.27l-15,26C353.42,266.23,368.7,239.75,351.7,230.27Z"/><path class="cls-2" d="M351.94,230.4c8.27,4.78,8.66,13.66,4.91,20.16,3.75-6.5,3.36-15.38-4.91-20.16Zm4.91,20.16c-3.75,6.5-11.64,10.6-19.91,5.83,8.27,4.77,16.16.67,19.91-5.83Z"/></g><g id="Flame-3" data-name="Flame"><path class="cls-2" d="M227.21,415.59s-67.11-13.66-26.88,76.85l14.82-25.66S195.42,436,227.21,415.59Z"/></g><g id="Body-3" data-name="Body"><path class="cls-2" d="M249.83,406.71c-43.31-18.25-28.52-36.77-22.53-65-5.51,8.78-95.1,66-80.3,9.07,6.28-18.19,15.52-56.87,25.48-70.13,21-28,67.48-26.87,67.48-26.87,62.43-118.13,172.61-129,172.61-129l-48,83.14c-44.62-26.58-85.29,44-40,69.28Z"/></g><g id="Big-3" data-name="Big"><path class="cls-2" d="M351.7,230.27l-15,26C319.7,246.76,335,220.29,351.7,230.27Z"/></g><g id="Flame-4" data-name="Flame"><path class="cls-2" d="M227.21,415.59s-67.11-13.66-26.88,76.85l14.82-25.66S195.42,436,227.21,415.59Z"/><path class="cls-2" d="M224.51,416.2c-14.9,10.58-17.11,23.54-16.25,32.74A45.64,45.64,0,0,0,214,466.8l-13.53,23.44c-13.58-31.18-15.65-53-6.17-64.79,8.45-10.54,24.14-9.94,30.23-9.25m2.7-.61s-67.11-13.66-26.88,76.85l14.82-25.66S195.42,436,227.21,415.59Z"/></g><g id="Body-4" data-name="Body"><path class="cls-2" d="M249.83,406.71c-43.31-18.25-28.52-36.77-22.53-65-5.51,8.78-95.1,66-80.3,9.07,6.28-18.19,15.52-56.87,25.48-70.13,21-28,67.48-26.87,67.48-26.87,62.43-118.13,172.61-129,172.61-129l-48,83.14c-44.62-26.58-85.29,44-40,69.28Z"/><path class="cls-2" d="M410.69,126.09,364.2,206.61c-23.24-13.23-44.37-1-54.21,16-5.36,9.29-7.34,19.69-5.59,29.29,2,10.77,8.47,19.65,18.8,25.7l-.34.59-2.37,4.1L312,297l-25.7,44.49-36.92,64a100.84,100.84,0,0,1-10.85-5.35c-22.59-13-18.86-26.38-13.69-44.83,1.18-4.24,2.41-8.62,3.41-13.32l1.17-5.52-3,4.78c-4,6.45-57.85,41.73-75,31.83C146.15,370,145,362.59,148,351.09c1.73-5,3.71-11.66,5.81-18.7,5.52-18.55,12.39-41.64,19.51-51.11,20.47-27.24,66.19-26.48,66.65-26.47l.62,0,.29-.55A258.91,258.91,0,0,1,293.9,184.6,239,239,0,0,1,350,146c29.46-14.58,53.74-18.88,60.65-19.87m1.88-1.25S302.39,135.68,240,253.81c0,0-46.45-1.11-67.48,26.87-10,13.26-19.2,51.94-25.48,70.13-3.38,13-1.32,20.05,3.94,23.08,17.78,10.27,72.11-25.37,76.36-32.15C221.93,367,209.52,384.48,238.06,401a105.57,105.57,0,0,0,11.77,5.75l74.74-129.45-.6-.34c-44.14-25.48-4.17-94.81,40-69.28l.58.34,48-83.14Z"/></g><g id="Big-4" data-name="Big"><path class="cls-2" d="M351.7,230.27l-15,26C319.7,246.76,335,220.29,351.7,230.27Z"/><path class="cls-2" d="M351.47,230.13c-8.27-4.77-16.16-.67-19.91,5.83,3.75-6.5,11.64-10.6,19.91-5.83ZM331.56,236c-3.75,6.5-3.37,15.38,4.91,20.16-8.28-4.78-8.66-13.66-4.91-20.16Z"/></g></g></g></g></g></g></svg>